<!DOCTYPE svg PUBLIC "-//W3C//DTD SVG 1.1//EN" "http://www.w3.org/Graphics/SVG/1.1/DTD/svg11.dtd">
<svg xmlns="http://www.w3.org/2000/svg" xmlns:xlink="http://www.w3.org/1999/xlink" width="551px" height="551px" version="1.1"><defs/><g transform="translate(0.5,0.5)"><ellipse cx="275" cy="275" rx="275" ry="275" fill="#ff8000" stroke="none" pointer-events="none"/><path d="M 253.42 141.18 C 258.11 125.49 249.31 108.9 233.63 104.11 C 218.02 99.25 201.42 108.06 196.58 123.81 C 191.78 139.57 200.69 156.13 216.3 160.92 C 231.98 165.75 248.58 156.9 253.42 141.18" fill="#ffffff" stroke="none" pointer-events="none"/><path d="M 309.01 232.58 L 297.76 163.01 L 366.5 122.72 C 369.76 120.89 372.33 117.96 373.39 114.23 C 375.59 106.7 371.3 98.77 363.75 96.5 C 359.76 95.33 355.58 95.99 352.21 98.08 L 254.22 155.73 C 250.78 157.56 247.81 160.12 245.25 163.08 L 203.91 218.65 L 147 211.85 C 143.37 213.09 140.26 215.87 138.65 219.56 C 135.5 226.84 138.83 235.21 146.01 238.28 C 149.02 239.67 152.28 239.85 155.32 239.01 L 213.26 245.59 C 215.34 244.75 217.25 243.51 218.79 241.79 L 242.31 212.21 L 253.56 276.05 C 255.65 285.04 261.66 292.94 270.16 297.25 L 320.66 312.35 L 328.1 370.48 C 329.02 377.06 333.6 382.87 340.19 385.25 C 349.83 388.69 360.38 383.57 363.72 373.92 C 364.78 371.03 364.96 367.85 364.56 364.92 L 355.44 293.82 C 354.37 288.59 351.11 283.98 346.27 281.24 L 314.83 271.77 L 366.87 240.18 L 430.48 268.41 C 430.89 268.59 431.29 268.77 431.66 268.95 C 441.29 272.32 451.85 267.27 455.18 257.62 C 458.33 248.55 454.05 238.72 445.54 234.7 L 373.06 202.34 C 372.7 202.23 372.48 202.05 372.07 201.98 C 366.87 200.15 361.34 200.81 356.9 203.22 L 309.01 232.58 Z" fill="#ffffff" stroke="none" pointer-events="none"/><path d="M 171.48 258.5 L 95.33 258.5 L 95.33 279.3 L 153.96 279.3 L 153.96 338.53 L 214.94 338.53 L 214.94 393.7 L 274.01 393.7 L 274.01 458.33 L 351.77 458.33 L 351.77 437.53 L 294.86 437.53 L 294.86 372.93 L 235.72 372.93 L 235.72 317.69 L 174.85 317.69 L 174.85 258.5 L 171.48 258.5 Z" fill="#ffffff" stroke="none" pointer-events="none"/></g></svg>